<svg height="512" viewBox="0 0 128 128" width="512" xmlns="http://www.w3.org/2000/svg"><g id="Circle_Grid" data-name="Circle Grid"><circle cx="64" cy="64" fill="#ea8953" r="64"/></g><g id="icon"><path d="m80.777 23h-49.745v82h65.936v-65.809z" fill="#eeefee"/><path d="m80.777 39.191h16.191l-16.191-16.191z" fill="#dbd8dd"/><path d="m67.135 56.541v-5.518a3.648 3.648 0 0 0 -2.156-3.329l-6.362-2.852h-7.741l-6.362 2.852a3.648 3.648 0 0 0 -2.156 3.329v5.518z" fill="#69b0ee"/><path d="m53.088 47.115 1.02 1.617h1.277l1.02-1.617z" fill="#da364c"/><path d="m55.385 48.732h-1.277l-1.02 6.491 1.659 1.318 1.658-1.318z" fill="#ef5261"/><path d="m50.9 43.5v2.275l1.236 1.342h5.229l1.235-1.344v-2.273z" fill="#f4bb87"/><path d="m50.876 44.842c-.407 1.517.487 2.856 1.935 4.12l1.936-1.847z" fill="#eeefee"/><path d="m58.617 44.842c.407 1.517-.487 2.856-1.935 4.12l-1.935-1.847z" fill="#eeefee"/><path d="m49.052 37.914a1.169 1.169 0 1 0 0 2.338h.826v-2.338z" fill="#f4bb87"/><path d="m60.441 37.914a1.169 1.169 0 1 1 0 2.338h-.826v-2.338z" fill="#f4bb87"/><path d="m49.027 33.072v6.4a5.72 5.72 0 0 0 11.439 0v-6.4z" fill="#fed19a"/><path d="m49.027 38.136c.405-4.168 4.213-5.009 10.143-2.915a1.27 1.27 0 0 1 .83 1.015 11.452 11.452 0 0 0 .47 1.9h.33a8.838 8.838 0 0 0 .63-2.6 10.186 10.186 0 0 0 -.019-1.711 4.639 4.639 0 0 0 -3.42-4.467c-3.252-.645-3.916-.087-3.916-.087a2.6 2.6 0 0 0 -3.313.073 6.392 6.392 0 0 0 -2.662 4.109 8.123 8.123 0 0 0 .626 4.683z" fill="#414451"/><g fill="#dbd8dd"><path d="m35.901 62.079h37.201v1.921h-37.201z"/><path d="m77.657 62.079h14.442v1.921h-14.442z"/><path d="m35.901 69.083h12.288v1.921h-12.288z"/><path d="m52.886 69.083h39.213v1.921h-39.213z"/><path d="m35.901 76.087h32.076v1.921h-32.076z"/><path d="m72.532 76.087h19.567v1.921h-19.567z"/><path d="m35.901 83.091h56.199v1.921h-56.199z"/><path d="m51.463 90.095h40.637v1.921h-40.637z"/><path d="m35.901 90.095h11.861v1.921h-11.861z"/><path d="m66.41 97.099h25.689v1.921h-25.689z"/><path d="m35.901 97.099h25.812v1.921h-25.812z"/></g></g></svg>