<svg height="512" viewBox="0 0 58 58" width="512" xmlns="http://www.w3.org/2000/svg"><g id="Page-1" fill="none" fill-rule="evenodd"><g id="006---Reading" fill-rule="nonzero"><path id="Shape" d="m11.52 19.29h-.01c-.3563277-1.8078843-.5272131-3.6474152-.51-5.49 0-8.28 9-11.04 18-11.04 8.1 0 7.2-2.76 7.2-2.76s10.8 4.6 10.8 13.8c.019673 1.8431719-.1546196 3.6832994-.52 5.49z" fill="#a56a43"/><path id="Shape" d="m37.017 44.973c-2.146-1.433-2.745-4.262-2.937-5.843h-10.16c-.18 1.488-.722 4.082-2.576 5.577l7.656 6.293z" fill="#f9c795"/><path id="Shape" d="m43.78 27h1.22c1.9126354-.007278 3.5524929-1.367549 3.9130592-3.2459043.3605663-1.8783554-.6590632-3.7491375-2.4330592-4.4640957-.4695117-.1928882-.9724125-.2914296-1.48-.29h-32c-.5075875-.0014296-1.0104883.0971118-1.48.29-1.77399598.7149582-2.79362547 2.5857403-2.43305919 4.4640957.36056627 1.8783553 2.00042379 3.2386263 3.91305919 3.2459043z" fill="#f9c795"/><path id="Shape" d="m23.587 39.016c3.4894242 1.3119545 7.3365758 1.3119545 10.826 0 .9575034-.3491355 1.8866015-.7717263 2.779-1.264 5.224-3.016 7.208-9.585 6.7-15.08-.029-.315-.2-3.047-.391-5.011-.1148805-1.1333859-1.0286396-2.0197111-2.165-2.1-3.013-.221-8.97-1.064-11.719-4.274-.1519922-.1826974-.3773449-.2883605-.615-.2883605s-.4630078.1056631-.615.2883605c-2.749 3.21-8.706 4.053-11.719 4.274-1.1363604.0802889-2.0501195.9666141-2.165 2.1-.194 1.964-.362 4.7-.391 5.011-.51 5.5 1.474 12.064 6.7 15.08.8911094.4920867 1.8188635.9146745 2.775 1.264z" fill="#fdd7ad"/><path id="Shape" d="m28.827 54.928c.419-6.795.59-9.361-5.827-11.928-.07-.03-.13-.05-.2-.08-4.228-1.696-12.962-5.32-15.85-6.52-.25017499-.1020221-.5309864-.0984732-.77850313.0098389-.24751673.1083122-.44067412.3121696-.53549687.5651611l-2.156 5.745z" fill="#f9eab0"/><path id="Shape" d="m29.176 54.989c-.42-6.84-.612-9.415 5.824-11.989.07-.03.13-.05.2-.08 4.228-1.7 12.962-5.323 15.85-6.525.250175-.1020221.5309864-.0984732.7785031.0098389.2475168.1083122.4406741.3121696.5354969.5651611l2.156 5.75z" fill="#f5efca"/><path id="Shape" d="m21.49 54.29c-4.76 2.71-8.63 2.71-12.49 2.71v-9z" fill="#f9c795"/><path id="Shape" d="m36.51 54.29c4.76 2.71 8.63 2.71 12.49 2.71v-8z" fill="#f9c795"/><circle id="Oval" cx="23" cy="25" fill="#ecf0f1" r="3"/><path id="Shape" d="m38 25c0 1.6568542-1.3431458 3-3 3s-3-1.3431458-3-3c-.0019916-.2153476.0215051-.4301744.07-.64.3287112-1.4949115 1.7301238-2.5026506 3.2519111-2.3384105s2.675911 1.4477875 2.6780889 2.9784105z" fill="#ecf0f1"/><path id="Shape" d="m29 36c-1.35546.0583036-2.6818413-.4043376-3.707-1.293-.3573625-.3924894-.3458038-.9958028.02633-1.374316.3721338-.3785133.9751636-.4003241 1.37367-.049684.658334.5075391 1.4769529.7619604 2.307.717.8278281.0431581 1.6437452-.21155 2.3-.718.3989756-.3752273 1.0248131-.3623371 1.408.029.3832686.3889397.3805882 1.0143597-.006 1.4-1.0244863.886009-2.348779 1.3471148-3.702 1.289z" fill="#802d40"/><path id="Shape" d="m30 31h-2c-.5522847 0-1-.4477153-1-1s.4477153-1 1-1h2c.5522847 0 1 .4477153 1 1s-.4477153 1-1 1z" fill="#f9c795"/><path id="Shape" d="m19 22c-.3464401-.000185-.6681037-.1796678-.8501945-.4743943-.1820909-.2947265-.1986643-.6627032-.0438055-.9726057 1.261-2.524 4.747-2.553 4.894-2.553.5522847 0 1 .4477153 1 1s-.4477153 1-1 1c-.046 0-2.416.062-3.108 1.447-.1689407.3380862-.5140551.5520417-.892.553z" fill="#a56a43"/><path id="Shape" d="m39 22c-.3808256.0020788-.7297741-.2123306-.9-.553-.7-1.407-3.077-1.447-3.1-1.447-.5522847 0-1-.4477153-1-1s.4477153-1 1-1c.147 0 3.633.029 4.9 2.553.1553431.3108588.1381628.6800764-.0453763.9751664-.183539.2950901-.5071168.4737357-.8546237.4718336z" fill="#a56a43"/><circle id="Oval" cx="23.5" cy="25.75" fill="#3f5c6c" r="1.75"/><circle id="Oval" cx="34.5" cy="25.75" fill="#3f5c6c" r="1.75"/><path id="Shape" d="m25 29h-4c-.5522847 0-1-.4477153-1-1s.4477153-1 1-1h4c.5522847 0 1 .4477153 1 1s-.4477153 1-1 1z" fill="#f9c795"/><path id="Shape" d="m37 29h-4c-.5522847 0-1-.4477153-1-1s.4477153-1 1-1h4c.5522847 0 1 .4477153 1 1s-.4477153 1-1 1z" fill="#f9c795"/><circle id="Oval" cx="22" cy="25" fill="#ecf0f1" r="1"/><circle id="Oval" cx="33" cy="25" fill="#ecf0f1" r="1"/><path id="Shape" d="m4.81 47.98-4.17-1.58c-.26352755-.1035433-.47122063-.3133455-.57209612-.5779058-.10087549-.2645602-.08559297-.5593819.04209612-.8120942l1.09-2.19c.2292612-.4654983.77648151-.6783062 1.26-.49l1.02.39 21.52 8.28h8l21.52-8.28 1.02-.39c.4835185-.1883062 1.0307388.0245017 1.26.49l1.09 2.19c.1276891.2527123.1429716.547534.0420961.8120942-.1008755.2645603-.3085686.4743625-.5720961.5779058l-4.17 1.58-8.53 3.23-8.15 3.08-3.17 1.2h-8.68l-3.17-1.2-8.15-3.08z" fill="#a56a43"/><path id="Shape" d="m30.459 58h-2.918c-1.853 0-3.264-1.942-2.959-4.075l.418-2.925h8l.418 2.925c.305 2.133-1.106 4.075-2.959 4.075z" fill="#805333"/><g fill="#fdd7ad"><path id="Shape" d="m4.93149793 48.6328622h5.99999997c1.1045695 0 2 .8954305 2 2v2c0 2.209139-1.790861 4-3.99999997 4h-2c-2.209139 0-4-1.790861-4-4v-2c0-1.1045695.8954305-2 2-2z" transform="matrix(.93 .366 -.366 .93 19.836 .754)"/><path id="Shape" d="m49.0691414 48.6323653h2c2.209139 0 4 1.790861 4 4v2c0 1.1045694-.8954305 2-2 2h-6c-1.1045695 0-2-.8954306-2-2v-2c0-2.209139 1.790861-4 4-4z" transform="matrix(-.93 .366 -.366 -.93 115.941 83.259)"/></g></g></g></svg>